<svg width="200" height="116" viewBox="0 0 200 116" fill="none" xmlns="http://www.w3.org/2000/svg">
<path d="M144.989 1.85642C145.689 2.26895 146.134 2.82213 146.323 3.51594C146.512 4.191 146.399 4.87544 145.983 5.56925C145.358 6.56309 144.592 7.47255 143.684 8.29762C141.848 9.98528 139.824 11.5135 137.61 12.8824C126.465 20.1018 114.46 25.5867 101.593 29.337C101.007 29.5058 100.42 29.6933 99.8336 29.8996C98.9632 30.1808 98.0739 30.4434 97.1657 30.6871C96.9197 30.7809 96.6926 30.7528 96.4845 30.6028C96.2764 30.4527 96.1439 30.2371 96.0872 29.9558C96.0872 29.8246 96.1345 29.6745 96.2291 29.5058C96.3426 29.3183 96.4656 29.1964 96.598 29.1401C97.6766 28.6901 98.8024 28.2775 99.9755 27.9025C112.88 23.6646 124.971 17.7672 136.248 10.2103C137.629 9.21646 138.963 8.18511 140.25 7.11627C140.42 6.9475 140.609 6.80686 140.817 6.69435C141.479 6.15055 141.952 5.46612 142.236 4.64104C142.407 4.1535 142.265 3.74096 141.811 3.40343C141.3 3.08465 140.732 2.89714 140.108 2.84088C139.994 2.84088 139.871 2.82213 139.739 2.78463C137.279 2.37209 134.81 2.16582 132.331 2.16582C129.871 2.16582 127.411 2.26895 124.952 2.47522C119.37 3.01902 113.807 3.76909 108.263 4.72543C102.738 5.66301 97.2224 6.71311 91.7163 7.87571C75.4062 11.2885 59.3609 15.6202 43.5805 20.8706C37.9609 22.727 32.3886 24.7054 26.8635 26.8055C21.3574 28.9057 15.9176 31.2122 10.5439 33.7249C9.08696 34.4375 7.63002 35.1407 6.17308 35.8345C5.3973 36.247 4.59315 36.6596 3.76061 37.0721C3.62816 37.1096 3.52409 37.1752 3.44841 37.269C2.89969 37.5503 2.33205 37.7753 1.74549 37.944C1.46167 38.0566 1.15893 38.1034 0.837268 38.0847C0.534527 38.0659 0.298011 37.9347 0.127719 37.6909C-0.042573 37.3534 -0.042573 37.0627 0.127719 36.8189C0.298011 36.5752 0.525066 36.3689 0.808886 36.2001C0.846729 36.1626 0.912953 36.1251 1.00756 36.0876C2.36989 35.3001 3.77953 34.5312 5.23647 33.7812C9.91004 31.4372 14.6687 29.2808 19.5126 27.3118C24.3565 25.3242 29.2571 23.4584 34.2145 21.7145C54.1575 14.6638 74.4979 9.07582 95.2357 4.95045C100.231 3.95661 105.226 3.04715 110.221 2.22208C115.217 1.397 120.25 0.778195 125.321 0.365658C126.778 0.290651 128.253 0.215644 129.748 0.140638C130.41 0.0843826 131.101 0.0375034 131.82 0C134.942 0 138.064 0.22502 141.186 0.675061C142.511 0.843826 143.778 1.23761 144.989 1.85642ZM67.8187 59.4616C68.1025 59.5179 68.3674 59.621 68.6134 59.771C68.8783 59.9023 69.0675 60.0523 69.1811 60.2211C69.3135 60.3898 69.3324 60.5492 69.2378 60.6992C69.0297 60.9617 68.7932 61.1118 68.5283 61.1493C68.2634 61.1868 68.0079 61.2055 67.762 61.2055C67.7052 61.2055 67.6579 61.2055 67.62 61.2055C63.1735 61.2055 58.6986 61.4118 54.1954 61.8243C51.8302 62.0306 49.4367 62.1994 47.0147 62.3306C46.22 62.3681 45.6808 62.7807 45.397 63.5682C45.151 64.187 44.8766 64.8058 44.5739 65.4246C44.4225 65.7809 44.2806 66.1466 44.1482 66.5216C43.5616 67.853 43.0034 69.1562 42.4736 70.4313C37.8947 81.4761 33.1265 92.4458 28.1691 103.341C26.75 106.36 25.2458 109.332 23.6564 112.257C23.6564 112.294 23.6375 112.332 23.5996 112.37C23.1077 113.326 22.4833 114.235 21.7264 115.098C21.0642 115.885 20.1938 116.157 19.1153 115.914C18.8125 115.82 18.5571 115.67 18.3489 115.464C18.1408 115.257 18.0367 114.995 18.0367 114.676C18.0935 113.963 18.226 113.26 18.4341 112.566C18.5855 112.079 18.7463 111.563 18.9166 111.019C19.7491 108.338 20.629 105.656 21.5561 102.975C25.7188 91.1426 30.5627 79.5915 36.0877 68.3218C36.5986 67.2529 37.204 66.2028 37.9041 65.1715C38.0744 64.9277 38.3109 64.7871 38.6137 64.7496C38.9353 64.6933 39.2381 64.7121 39.5219 64.8058C40.0328 64.9559 40.222 65.3403 40.0895 65.9591C39.9571 66.5779 39.6922 67.2904 39.2948 68.0968C38.9164 68.9031 38.538 69.6156 38.1596 70.2345C37.8568 70.7408 37.6487 71.1158 37.5352 71.3596C31.8209 83.5294 28.6327 90.6269 27.9704 92.6521C27.7245 93.3459 27.6015 93.8147 27.6015 94.0585C27.6015 94.3022 27.6866 94.4054 27.8569 94.3679C28.0272 94.3304 28.2164 94.2179 28.4245 94.0304C28.6327 93.8428 28.8219 93.6459 28.9922 93.4397C29.1814 93.2334 29.3044 93.0928 29.3611 93.0178C29.6071 92.399 29.872 91.7614 30.1558 91.1051C31.083 88.9861 32.0007 86.8766 32.9089 84.7764C33.1927 84.1576 33.4671 83.5388 33.732 82.92C35.6809 78.3446 37.6108 73.7691 39.5219 69.1937C39.6165 69.025 39.7395 68.7718 39.8909 68.4343C40.2314 67.778 40.5909 67.0092 40.9694 66.1278C41.3478 65.2465 41.5843 64.4589 41.6789 63.7651C41.7925 63.0526 41.6127 62.6775 41.1397 62.64C40.1936 62.64 39.2381 62.64 38.2731 62.64C37.6487 62.64 37.0243 62.64 36.3999 62.64C35.8701 62.64 35.3119 62.64 34.7253 62.64C32.89 62.64 31.0546 62.6119 29.2192 62.5556C28.7273 62.5181 28.2732 62.3962 27.8569 62.19C27.8191 62.1525 27.7812 62.0868 27.7434 61.9931C27.7245 61.8806 27.6961 61.7587 27.6582 61.6274C27.6582 61.5899 27.6582 61.5524 27.6582 61.5149C27.6582 61.4774 27.6772 61.4399 27.715 61.4024C27.7718 61.3462 27.8191 61.2993 27.8569 61.2618C28.1029 61.093 28.3489 60.9899 28.5948 60.9524C28.8408 60.9149 29.0963 60.8961 29.3611 60.8961C29.4368 60.8961 29.5125 60.8961 29.5882 60.8961C30.6289 60.8586 31.6695 60.8211 32.7102 60.7836C35.416 60.6148 38.1217 60.5117 40.8275 60.4742C41.7546 60.4742 42.4736 60.2773 42.9845 59.8835C43.5143 59.4897 43.9211 58.8803 44.2049 58.0552C45.5483 54.6237 46.9012 51.2015 48.2635 47.7887C49.7205 44.1509 51.1585 40.513 52.5776 36.8752C53.6561 34.0812 54.6779 31.2778 55.6429 28.4651C56.1727 26.9837 56.7119 25.4835 57.2606 23.9647C57.2606 23.9084 57.2795 23.8615 57.3174 23.824C57.5255 23.1677 57.7999 22.5677 58.1405 22.0239C58.3486 21.7426 58.5946 21.5926 58.8784 21.5738C59.1811 21.5551 59.4933 21.5832 59.815 21.6582C60.061 21.7895 60.2597 21.9489 60.411 22.1364C60.5624 22.3239 60.6192 22.5395 60.5813 22.7833C60.4489 23.7209 60.2597 24.6491 60.0137 25.5679C58.6324 30.0683 57.0714 34.4844 55.3307 38.816C55.236 38.9285 55.1698 39.0504 55.132 39.1817C53.5615 43.2695 51.9437 47.3293 50.2787 51.3609C49.5218 53.2173 48.765 55.0737 48.0081 56.9301C48.0081 56.9676 48.0081 56.9864 48.0081 56.9864C47.8 57.5302 47.5918 58.0927 47.3837 58.674C47.1756 59.1991 47.1661 59.5835 47.3553 59.8273C47.5445 60.0523 47.9513 60.1648 48.5757 60.1648C49.4083 60.1648 50.2408 60.1179 51.0734 60.0242C51.4518 60.0242 51.8302 60.0242 52.2086 60.0242C52.2843 60.0242 52.3411 60.0054 52.3789 59.9679C57.166 59.7991 61.9342 59.6304 66.6834 59.4616C67.0619 59.4241 67.4403 59.4241 67.8187 59.4616Z" fill="white"/>
<path d="M89.2187 69.3062C87.5536 70.0188 86.0305 70.1876 84.6492 69.8125C84.0248 69.6438 83.4477 69.6438 82.9179 69.8125C82.4071 69.9813 81.7826 70.5157 81.0447 71.4158C79.0769 73.7223 76.7401 75.0255 74.0344 75.3255C72.0476 75.4756 70.7326 75.0911 70.0893 74.1723C69.446 73.2347 69.2284 72.044 69.4365 70.6001C69.5879 69.1562 70.0798 67.7874 70.9124 66.4935C71.7449 65.1996 72.8329 63.9901 74.1763 62.865C75.1791 62.04 76.2009 61.7118 77.2415 61.8806C77.7713 61.8806 78.1214 62.0681 78.2917 62.4431C78.3674 62.6869 78.32 62.9025 78.1498 63.0901C77.9984 63.2776 77.7997 63.4557 77.5537 63.6245C75.4724 65.2746 74.1195 67.2154 73.4951 69.4469C73.1545 70.5157 73.1545 71.4814 73.4951 72.344C73.7789 73.0378 74.375 73.141 75.2832 72.6534C76.2103 72.0721 77.1185 71.2658 78.0078 70.2345C78.8971 69.2031 79.5499 68.153 79.9662 67.0842C80.3825 66.0153 80.4109 65.0684 80.0513 64.2433C79.7486 63.9433 79.4742 63.7182 79.2283 63.5682C79.0958 63.4745 78.9728 63.3901 78.8593 63.3151C78.7647 63.2213 78.7458 63.1182 78.8025 63.0057C78.9539 62.2556 79.3702 61.7212 80.0513 61.4024C80.7514 61.0649 81.5272 60.8961 82.3787 60.8961C83.2301 60.8961 83.9681 61.0649 84.5925 61.4024C85.2169 61.7212 85.5291 62.2087 85.5291 62.865C85.4912 63.6901 85.2831 64.5152 84.9047 65.3403C84.6587 66.0528 84.7817 66.5966 85.2736 66.9717C86.3711 67.9467 88.1024 67.778 90.4675 66.4654L90.7797 66.156C91.442 65.2559 92.2556 64.4121 93.2206 63.6245C94.091 62.8744 95.0276 62.565 96.0304 62.6963C96.4467 62.6963 96.7399 62.8838 96.9102 63.2588C96.9481 63.4651 96.8913 63.662 96.7399 63.8495C96.5886 64.0183 96.4372 64.1683 96.2858 64.2995H96.2007C94.4599 65.6684 93.2584 67.403 92.5962 69.5031C92.2934 70.4032 92.2934 71.247 92.5962 72.0346C92.8422 72.6909 93.3625 72.7941 94.1572 72.344C95.0276 71.8002 95.8601 71.0877 96.6548 70.2063C97.4495 69.325 98.0266 68.3968 98.3861 67.4217C98.7645 66.4466 98.7645 65.5934 98.3861 64.8621C98.178 64.5621 97.9509 64.3558 97.7049 64.2433C97.5914 64.2058 97.4873 64.1495 97.3927 64.0745C97.317 63.9808 97.2981 63.8683 97.336 63.737C97.5063 63.1182 97.8941 62.6588 98.4996 62.3587C99.1051 62.04 99.7863 61.8806 100.543 61.8806C101.319 61.8806 101.962 62.0306 102.473 62.3306C103.003 62.6119 103.287 63.0432 103.325 63.6245C103.287 64.3558 103.098 65.0965 102.757 65.8466C102.606 66.4654 102.738 66.9435 103.154 67.2811C104.062 68.1436 105.311 68.453 106.901 68.2093C107.525 68.1155 108.121 67.9561 108.689 67.7311C109.275 67.5061 109.824 67.2904 110.335 67.0842C111.035 66.8029 111.678 66.5779 112.265 66.4091C112.757 66.3154 113.041 66.3247 113.116 66.4372C113.211 66.531 113.192 66.7279 113.06 67.0279C112.851 67.478 112.558 67.8717 112.18 68.2093C111.82 68.5281 111.12 68.9312 110.079 69.4188C109.039 69.8875 107.885 70.197 106.617 70.347C105.349 70.4782 103.987 70.3001 102.53 69.8125C102.019 69.6438 101.527 69.6344 101.054 69.7844C100.581 69.9157 100.004 70.3938 99.3227 71.2189C97.6198 73.2441 95.5384 74.4067 93.0787 74.7067C91.3379 74.8567 90.1743 74.5192 89.5877 73.6941C89.0011 72.8691 88.7741 71.7815 88.9065 70.4313C88.9822 70.0563 89.0863 69.6813 89.2187 69.3062Z" fill="white"/>
<path d="M135.425 66.1278C135.822 66.2216 136.03 66.3622 136.049 66.5497C136.068 66.7373 136.077 66.831 136.077 66.831C135.623 67.6186 135.103 68.3405 134.516 68.9968C133.173 70.4782 131.612 71.6596 129.833 72.5409C128.963 73.0285 127.979 73.291 126.882 73.3285C124.346 73.366 123.182 72.1471 123.391 69.6719C123.485 69.1469 123.608 68.6312 123.76 68.1249C123.854 67.8811 123.92 67.6373 123.958 67.3936C124.204 66.4935 124.27 65.9966 124.157 65.9028C124.062 65.7903 123.769 66.0435 123.277 66.6623C123.145 66.7748 123.022 66.8967 122.908 67.0279C122.151 67.928 121.375 68.8093 120.581 69.6719C119.124 71.3221 117.459 72.7097 115.586 73.8348C114.469 74.4911 113.287 74.838 112.038 74.8755C109.994 74.9693 108.85 74.041 108.604 72.0909C108.509 71.3033 108.547 70.5251 108.717 69.7563C109.55 66.5685 111.215 64.1402 113.712 62.4713C116.21 60.8024 119.067 60.2117 122.284 60.6992C123.192 60.9617 123.854 60.718 124.27 59.9679C124.441 59.6866 124.611 59.396 124.781 59.096C125.652 57.6146 126.503 56.1332 127.336 54.6518C128.906 51.8015 130.486 48.9325 132.076 46.0448C133.362 43.7758 134.649 41.4881 135.935 39.1817C136.314 38.4691 136.73 37.7847 137.184 37.1283C137.392 36.8096 137.648 36.6221 137.951 36.5658C138.272 36.4908 138.603 36.4533 138.944 36.4533C139.02 36.4533 139.105 36.4533 139.199 36.4533C139.578 36.4533 139.881 36.547 140.108 36.7346C140.335 36.9221 140.382 37.1752 140.25 37.494C140.004 38.2816 139.71 39.0316 139.37 39.7442C137.629 43.1945 135.983 46.6917 134.431 50.2358C132.899 53.7611 131.385 57.3145 129.89 60.8961C129.398 62.1337 128.897 63.3713 128.386 64.6089C127.761 66.0528 127.241 67.5342 126.825 69.0531C126.711 69.3906 126.655 69.7282 126.655 70.0657C126.655 70.3845 126.815 70.6657 127.137 70.9095C127.345 71.0408 127.563 71.0689 127.79 70.9939C128.017 70.9001 128.263 70.797 128.528 70.6845C128.566 70.6282 128.622 70.5814 128.698 70.5439C130.496 69.5125 132.142 68.2749 133.637 66.831C133.882 66.5873 134.138 66.381 134.403 66.2122C134.687 66.0435 135.027 66.0153 135.425 66.1278ZM121.404 64.2995C121.612 63.962 121.669 63.6432 121.574 63.3432C121.498 63.0244 121.29 62.79 120.95 62.64C120.25 62.265 119.502 62.2181 118.708 62.4994C116.759 63.0807 115.122 64.187 113.798 65.8184C112.492 67.4498 111.782 69.25 111.669 71.2189C111.707 71.3127 111.726 71.3783 111.726 71.4158C111.726 71.5846 111.726 71.7533 111.726 71.9221C111.896 72.8222 112.454 73.0003 113.4 72.4565C114.365 71.894 115.434 70.9939 116.607 69.7563C117.799 68.5187 118.859 67.3467 119.786 66.2403C120.732 65.1152 121.271 64.4683 121.404 64.2995Z" fill="white"/>
<path d="M145.216 69.0812C144.214 70.2626 143.021 71.3502 141.64 72.344C140.259 73.3379 138.698 74.0129 136.957 74.3692C135.216 74.7067 133.864 74.5755 132.899 73.9754C131.934 73.3754 131.744 72.044 132.331 69.9813C133.088 67.8436 134.128 65.8091 135.453 63.8776C135.756 63.4651 136.191 63.1744 136.759 63.0057C137.175 62.9119 137.534 62.9869 137.837 63.2307C138.159 63.4557 138.282 63.7464 138.206 64.1027C137.922 64.7777 137.61 65.4528 137.269 66.1278C136.929 66.8029 136.702 67.2436 136.588 67.4498C135.926 68.6499 135.462 69.9063 135.198 71.2189C135.198 71.969 136.21 72.0159 138.234 71.3596C140.259 70.7032 142.227 69.5031 144.138 67.7592C146.049 65.9966 146.957 65.4809 146.863 66.2122C146.787 66.9248 146.238 67.8811 145.216 69.0812ZM140.278 59.6585C140.183 59.7335 139.985 59.8273 139.682 59.9398C139.398 60.0335 139.086 60.1085 138.745 60.1648C138.424 60.2023 138.168 60.146 137.979 59.996C137.79 59.846 137.78 59.546 137.951 59.096C138.253 58.3084 138.566 57.6239 138.887 57.0426C139.228 56.4426 139.663 55.7863 140.193 55.0737C140.533 54.7549 140.902 54.5862 141.3 54.5674C141.697 54.5299 142.028 54.633 142.293 54.8768C142.558 55.1018 142.634 55.4206 142.52 55.8332C142.104 57.3145 141.356 58.5897 140.278 59.6585Z" fill="white"/>
<path d="M167.014 66.5779C167.165 66.7841 167.203 66.9904 167.127 67.1967C167.052 67.403 166.91 67.5905 166.702 67.7592C165.396 68.9218 163.939 69.85 162.331 70.5439C159.568 71.819 156.673 72.6065 153.646 72.9066C151.262 73.1503 148.991 72.7941 146.834 71.8377C146.039 71.4814 145.453 71.669 145.074 72.4003C144.545 73.4316 143.986 74.463 143.4 75.4943C143.116 76.0756 142.804 76.6757 142.463 77.2945C142.425 77.3695 142.388 77.4539 142.35 77.5476C142.217 77.7539 142.094 77.9508 141.981 78.1383C141.848 78.3258 141.631 78.4571 141.328 78.5321C141.177 78.5696 141.016 78.5883 140.846 78.5883C140.675 78.5883 140.524 78.5508 140.391 78.4758C140.278 78.3821 140.183 78.2602 140.108 78.1102C140.013 77.9414 139.966 77.7726 139.966 77.6039C140.098 77.0601 140.287 76.5256 140.533 76.0006C141.063 74.8005 141.583 73.6191 142.094 72.4565C143.381 69.4938 144.734 66.5685 146.153 63.6807C150.07 55.7113 153.797 47.6668 157.335 39.5473C157.619 38.7597 158.007 38.0566 158.499 37.4377C158.878 36.9877 159.398 36.8658 160.06 37.0721C160.741 37.3534 160.949 37.8315 160.685 38.5066C160.23 39.8942 159.738 41.2912 159.209 42.6976C156.579 49.1294 153.703 55.4394 150.581 61.6274C149.918 62.9588 149.682 63.8026 149.871 64.1589C150.06 64.4964 150.505 64.5246 151.205 64.2433C151.905 63.9433 152.719 63.5495 153.646 63.0619C154.308 62.6869 154.97 62.3587 155.633 62.0775C155.765 61.9837 155.888 61.9181 156.002 61.8806C156.796 61.4305 157.657 61.1868 158.584 61.1493C158.944 61.1493 159.209 61.3087 159.379 61.6274C159.474 61.8337 159.474 62.0118 159.379 62.1619C159.303 62.3119 159.199 62.4244 159.067 62.4994C157.648 63.3245 156.21 64.112 154.753 64.8621C154.053 65.1809 153.324 65.5278 152.567 65.9028C151.829 66.2403 151.101 66.5966 150.382 66.9717C149.89 67.2529 149.436 67.5811 149.02 67.9561C148.055 68.95 148.159 69.775 149.332 70.4313C150.297 70.8439 151.262 71.0595 152.227 71.0783C153.211 71.097 154.185 70.9845 155.15 70.7408C158.14 70.0844 160.949 69.0062 163.579 67.5061C163.788 67.3936 163.996 67.2904 164.204 67.1967C164.696 66.8779 165.216 66.5966 165.765 66.3529C165.973 66.2591 166.2 66.2216 166.446 66.2403C166.692 66.2591 166.881 66.3716 167.014 66.5779Z" fill="white"/>
<path d="M185.576 66.606C186.03 66.8498 186.067 67.4592 185.689 68.4343C185.14 69.1469 184.554 69.8125 183.929 70.4313C183.305 71.0502 182.624 71.6033 181.886 72.0909C181.829 72.0909 181.801 72.1096 181.801 72.1471C181.309 72.4847 180.788 72.7753 180.24 73.0191C175.718 74.6317 173.409 73.6848 173.315 70.1782C171.479 71.7533 170.249 72.7191 169.625 73.0753C168.13 73.9567 166.512 74.3505 164.772 74.2567C163.485 74.1817 162.615 73.7973 162.16 73.1035C161.687 72.3909 161.725 71.4346 162.274 70.2345C163.106 68.3405 164.289 66.6529 165.822 65.1715C167.619 63.5214 169.615 62.1994 171.81 61.2055C172.983 60.6242 174.213 60.3992 175.5 60.5305C176.787 60.6055 177.562 61.3274 177.827 62.6963C177.941 63.1088 177.837 63.4745 177.515 63.7932C177.099 64.1683 176.616 64.2527 176.068 64.0464C176.03 64.0464 175.973 64.037 175.897 64.0183C175.84 63.9995 175.793 63.9714 175.755 63.9339C175.207 63.1838 174.648 62.8744 174.081 63.0057C173.532 63.1182 172.946 63.362 172.321 63.737C169.407 65.4246 167.241 67.778 165.822 70.797C165.746 70.9283 165.699 71.0783 165.68 71.247C165.661 71.3971 165.708 71.5189 165.822 71.6127C166.162 71.7252 166.541 71.7065 166.957 71.5564C167.373 71.3877 167.789 71.1533 168.206 70.8533C168.622 70.5345 168.972 70.272 169.256 70.0657C169.294 70.0094 169.313 69.9813 169.313 69.9813C170.694 68.8375 172.047 67.6655 173.371 66.4654C173.958 65.8466 174.686 65.4997 175.557 65.4246C176.805 65.4246 177.326 65.9778 177.118 67.0842C177.004 67.4967 176.881 67.9092 176.749 68.3218C176.257 70.1032 176.238 71.1533 176.692 71.4721C177.146 71.7721 177.837 71.7721 178.764 71.4721C179.71 71.1533 180.647 70.5626 181.574 69.7C182.52 68.8187 183.314 68.0218 183.958 67.3092C184.601 66.5779 185.14 66.3435 185.576 66.606Z" fill="white"/>
<path d="M197.581 67.5061C198.205 66.8873 198.726 66.5404 199.142 66.4654C199.558 66.3904 199.823 66.456 199.937 66.6623C200.069 66.8685 199.994 67.1498 199.71 67.5061C198.045 69.4938 196.181 71.2095 194.118 72.6534C192.056 74.0973 189.927 74.9318 187.733 75.1568C185.557 75.3818 184.242 74.2004 183.787 71.6127C183.447 69.0437 185.017 63.812 188.499 55.9175C191.98 48.0231 194.733 41.5537 196.758 36.5095C196.928 36.0595 197.184 35.6657 197.524 35.3282C197.978 34.8781 198.518 34.775 199.142 35.0188C199.35 35.1125 199.558 35.2626 199.767 35.4688C199.975 35.6751 200.041 36.0407 199.965 36.5658C191.015 57.6052 186.682 69.0437 186.966 70.8814C187.25 72.7191 188.442 73.1785 190.542 72.2596C192.662 71.3221 194.289 70.3751 195.424 69.4188C196.578 68.4437 197.297 67.8061 197.581 67.5061Z" fill="white"/>
</svg>
