<svg width="37" height="36" viewBox="0 0 37 36" fill="none" xmlns="http://www.w3.org/2000/svg">
<path d="M2.80504 22.138C1.48871 15.9908 0.828709 12.9163 2.48054 10.8758C4.13054 8.8335 7.27471 8.8335 13.5612 8.8335H23.0139C29.3022 8.8335 32.4427 8.8335 34.0945 10.8758C35.7464 12.9182 35.0864 15.9908 33.77 22.138L32.9835 25.8047C32.0907 29.9718 31.6452 32.0545 30.1327 33.2773C28.6202 34.5002 26.4899 34.5002 22.2292 34.5002H14.3459C10.0852 34.5002 7.95488 34.5002 6.44421 33.2773C4.92988 32.0545 4.48254 29.9718 3.59154 25.8047L2.80504 22.138Z" stroke="white" stroke-width="3"/>
<path d="M10.9543 18.0002H25.6209M14.6209 23.5002H21.9543M29.2876 12.5002L23.7876 1.50024M7.2876 12.5002L12.7876 1.50024" stroke="white" stroke-width="3" stroke-linecap="round" stroke-linejoin="round"/>
</svg>
